<svg width="18" height="14" viewBox="0 0 18 14" fill="none" xmlns="http://www.w3.org/2000/svg">
<g clip-path="url(#clip0_144_2925)">
<path d="M17.3996 0.700012H0.599609V1.66951H17.3996V0.700012Z" fill="#B22234"/>
<path d="M17.3996 1.66949H0.599609V2.63899H17.3996V1.66949Z" fill="white"/>
<path d="M17.3996 2.63901H0.599609V3.60851H17.3996V2.63901Z" fill="#B22234"/>
<path d="M17.3996 3.60849H0.599609V4.57799H17.3996V3.60849Z" fill="white"/>
<path d="M17.3996 4.578H0.599609V5.5475H17.3996V4.578Z" fill="#B22234"/>
<path d="M17.3996 5.54749H0.599609V6.51699H17.3996V5.54749Z" fill="white"/>
<path d="M17.3996 6.517H0.599609V7.4865H17.3996V6.517Z" fill="#B22234"/>
<path d="M17.3996 7.48651H0.599609V8.45601H17.3996V7.48651Z" fill="white"/>
<path d="M17.3996 8.45599H0.599609V9.42549H17.3996V8.45599Z" fill="#B22234"/>
<path d="M17.3996 9.42551H0.599609V10.395H17.3996V9.42551Z" fill="white"/>
<path d="M17.3996 10.395H0.599609V11.3645H17.3996V10.395Z" fill="#B22234"/>
<path d="M17.3996 11.3645H0.599609V12.334H17.3996V11.3645Z" fill="white"/>
<path d="M8.99961 0.700012H0.599609V7.48651H8.99961V0.700012Z" fill="#3C3B6E"/>
<path d="M1.50017 1.74159L1.30517 1.90609L1.37897 1.63869L1.18457 1.46929H1.42517L1.50017 1.20609L1.57517 1.46929H1.81577L1.62137 1.63869L1.69517 1.90609L1.50017 1.74159Z" fill="white"/>
<path d="M2.82048 1.74159L2.62548 1.90609L2.69928 1.63869L2.50488 1.46929H2.74548L2.82048 1.20609L2.89548 1.46929H3.13608L2.94168 1.63869L3.01548 1.90609L2.82048 1.74159Z" fill="white"/>
<path d="M4.13982 1.74159L3.94482 1.90609L4.01862 1.63869L3.82422 1.46929H4.06482L4.13982 1.20609L4.21482 1.46929H4.45542L4.26102 1.63869L4.33482 1.90609L4.13982 1.74159Z" fill="white"/>
<path d="M5.46013 1.74159L5.26513 1.90609L5.33893 1.63869L5.14453 1.46929H5.38513L5.46013 1.20609L5.53513 1.46929H5.77573L5.58133 1.63869L5.65513 1.90609L5.46013 1.74159Z" fill="white"/>
<path d="M6.78044 1.74159L6.58544 1.90609L6.65924 1.63869L6.46484 1.46929H6.70544L6.78044 1.20609L6.85544 1.46929H7.09604L6.90164 1.63869L6.97544 1.90609L6.78044 1.74159Z" fill="white"/>
<path d="M8.09978 1.74159L7.90478 1.90609L7.97858 1.63869L7.78418 1.46929H8.02478L8.09978 1.20609L8.17478 1.46929H8.41538L8.22098 1.63869L8.29478 1.90609L8.09978 1.74159Z" fill="white"/>
<path d="M2.16033 2.5879L1.96533 2.7517L2.03913 2.485L1.84473 2.3149H2.08533L2.16033 2.0517L2.23533 2.3149H2.47593L2.28153 2.485L2.35533 2.7517L2.16033 2.5879Z" fill="white"/>
<path d="M3.47966 2.5879L3.28466 2.7517L3.35846 2.485L3.16406 2.3149H3.40466L3.47966 2.0517L3.55466 2.3149H3.79526L3.60086 2.485L3.67466 2.7517L3.47966 2.5879Z" fill="white"/>
<path d="M4.79998 2.5879L4.60498 2.7517L4.67877 2.485L4.48438 2.3149H4.72498L4.79998 2.0517L4.87497 2.3149H5.11558L4.92117 2.485L4.99497 2.7517L4.79998 2.5879Z" fill="white"/>
<path d="M6.12029 2.5879L5.92529 2.7517L5.99909 2.485L5.80469 2.3149H6.04529L6.12029 2.0517L6.19529 2.3149H6.43589L6.24149 2.485L6.31529 2.7517L6.12029 2.5879Z" fill="white"/>
<path d="M7.43962 2.5879L7.24462 2.7517L7.31842 2.485L7.12402 2.3149H7.36462L7.43962 2.0517L7.51462 2.3149H7.75522L7.56082 2.485L7.63462 2.7517L7.43962 2.5879Z" fill="white"/>
<path d="M1.50017 3.43351L1.30517 3.59801L1.37897 3.33061L1.18457 3.16051H1.42517L1.50017 2.89801L1.57517 3.16051H1.81577L1.62137 3.33061L1.69517 3.59801L1.50017 3.43351Z" fill="white"/>
<path d="M2.82048 3.43351L2.62548 3.59801L2.69928 3.33061L2.50488 3.16051H2.74548L2.82048 2.89801L2.89548 3.16051H3.13608L2.94168 3.33061L3.01548 3.59801L2.82048 3.43351Z" fill="white"/>
<path d="M4.13982 3.43351L3.94482 3.59801L4.01862 3.33061L3.82422 3.16051H4.06482L4.13982 2.89801L4.21482 3.16051H4.45542L4.26102 3.33061L4.33482 3.59801L4.13982 3.43351Z" fill="white"/>
<path d="M5.46013 3.43351L5.26513 3.59801L5.33893 3.33061L5.14453 3.16051H5.38513L5.46013 2.89801L5.53513 3.16051H5.77573L5.58133 3.33061L5.65513 3.59801L5.46013 3.43351Z" fill="white"/>
<path d="M6.78044 3.43351L6.58544 3.59801L6.65924 3.33061L6.46484 3.16051H6.70544L6.78044 2.89801L6.85544 3.16051H7.09604L6.90164 3.33061L6.97544 3.59801L6.78044 3.43351Z" fill="white"/>
<path d="M8.09978 3.43351L7.90478 3.59801L7.97858 3.33061L7.78418 3.16051H8.02478L8.09978 2.89801L8.17478 3.16051H8.41538L8.22098 3.33061L8.29478 3.59801L8.09978 3.43351Z" fill="white"/>
<path d="M2.16033 4.27909L1.96533 4.44359L2.03913 4.17619L1.84473 4.00679H2.08533L2.16033 3.74359L2.23533 4.00679H2.47593L2.28153 4.17619L2.35533 4.44359L2.16033 4.27909Z" fill="white"/>
<path d="M3.48064 4.27909L3.28564 4.44359L3.35944 4.17619L3.16504 4.00679H3.40564L3.48064 3.74359L3.55564 4.00679H3.79624L3.60184 4.17619L3.67564 4.44359L3.48064 4.27909Z" fill="white"/>
<path d="M4.79998 4.27909L4.60498 4.44359L4.67877 4.17619L4.48438 4.00679H4.72498L4.79998 3.74359L4.87497 4.00679H5.11558L4.92117 4.17619L4.99497 4.44359L4.79998 4.27909Z" fill="white"/>
<path d="M6.12029 4.27909L5.92529 4.44359L5.99909 4.17619L5.80469 4.00679H6.04529L6.12029 3.74359L6.19529 4.00679H6.43589L6.24149 4.17619L6.31529 4.44359L6.12029 4.27909Z" fill="white"/>
<path d="M7.4406 4.27909L7.2456 4.44359L7.3194 4.17619L7.125 4.00679H7.3656L7.4406 3.74359L7.5156 4.00679H7.7562L7.5618 4.17619L7.6356 4.44359L7.4406 4.27909Z" fill="white"/>
<path d="M1.50017 5.1254L1.30517 5.2892L1.37897 5.0225L1.18457 4.8524H1.42517L1.50017 4.5892L1.57517 4.8524H1.81577L1.62137 5.0225L1.69517 5.2892L1.50017 5.1254Z" fill="white"/>
<path d="M2.82048 5.1254L2.62548 5.2892L2.69928 5.0225L2.50488 4.8524H2.74548L2.82048 4.5892L2.89548 4.8524H3.13608L2.94168 5.0225L3.01548 5.2892L2.82048 5.1254Z" fill="white"/>
<path d="M4.13982 5.1254L3.94482 5.2892L4.01862 5.0225L3.82422 4.8524H4.06482L4.13982 4.5892L4.21482 4.8524H4.45542L4.26102 5.0225L4.33482 5.2892L4.13982 5.1254Z" fill="white"/>
<path d="M5.46013 5.1254L5.26513 5.2892L5.33893 5.0225L5.14453 4.8524H5.38513L5.46013 4.5892L5.53513 4.8524H5.77573L5.58133 5.0225L5.65513 5.2892L5.46013 5.1254Z" fill="white"/>
<path d="M6.78044 5.1254L6.58544 5.2892L6.65924 5.0225L6.46484 4.8524H6.70544L6.78044 4.5892L6.85544 4.8524H7.09604L6.90164 5.0225L6.97544 5.2892L6.78044 5.1254Z" fill="white"/>
<path d="M8.09978 5.1254L7.90478 5.2892L7.97858 5.0225L7.78418 4.8524H8.02478L8.09978 4.5892L8.17478 4.8524H8.41538L8.22098 5.0225L8.29478 5.2892L8.09978 5.1254Z" fill="white"/>
<path d="M1.50017 6.8166L1.30517 6.9811L1.37897 6.7137L1.18457 6.5443H1.42517L1.50017 6.2811L1.57517 6.5443H1.81577L1.62137 6.7137L1.69517 6.9811L1.50017 6.8166Z" fill="white"/>
<path d="M2.82048 6.8166L2.62548 6.9811L2.69928 6.7137L2.50488 6.5443H2.74548L2.82048 6.2811L2.89548 6.5443H3.13608L2.94168 6.7137L3.01548 6.9811L2.82048 6.8166Z" fill="white"/>
<path d="M4.13982 6.8166L3.94482 6.9811L4.01862 6.7137L3.82422 6.5443H4.06482L4.13982 6.2811L4.21482 6.5443H4.45542L4.26102 6.7137L4.33482 6.9811L4.13982 6.8166Z" fill="white"/>
<path d="M5.46013 6.8166L5.26513 6.9811L5.33893 6.7137L5.14453 6.5443H5.38513L5.46013 6.2811L5.53513 6.5443H5.77573L5.58133 6.7137L5.65513 6.9811L5.46013 6.8166Z" fill="white"/>
<path d="M6.78044 6.8166L6.58544 6.9811L6.65924 6.7137L6.46484 6.5443H6.70544L6.78044 6.2811L6.85544 6.5443H7.09604L6.90164 6.7137L6.97544 6.9811L6.78044 6.8166Z" fill="white"/>
<path d="M8.09978 6.8166L7.90478 6.9811L7.97858 6.7137L7.78418 6.5443H8.02478L8.09978 6.2811L8.17478 6.5443H8.41538L8.22098 6.7137L8.29478 6.9811L8.09978 6.8166Z" fill="white"/>
<path d="M2.16033 5.97099L1.96533 6.13549L2.03913 5.86809L1.84473 5.69799H2.08533L2.16033 5.43549L2.23533 5.69799H2.47593L2.28153 5.86809L2.35533 6.13549L2.16033 5.97099Z" fill="white"/>
<path d="M3.48064 5.97099L3.28564 6.13549L3.35944 5.86809L3.16504 5.69799H3.40564L3.48064 5.43549L3.55564 5.69799H3.79624L3.60184 5.86809L3.67564 6.13549L3.48064 5.97099Z" fill="white"/>
<path d="M4.79998 5.97099L4.60498 6.13549L4.67877 5.86809L4.48438 5.69799H4.72498L4.79998 5.43549L4.87497 5.69799H5.11558L4.92117 5.86809L4.99497 6.13549L4.79998 5.97099Z" fill="white"/>
<path d="M6.12029 5.97099L5.92529 6.13549L5.99909 5.86809L5.80469 5.69799H6.04529L6.12029 5.43549L6.19529 5.69799H6.43589L6.24149 5.86809L6.31529 6.13549L6.12029 5.97099Z" fill="white"/>
<path d="M7.4406 5.97099L7.2456 6.13549L7.3194 5.86809L7.125 5.69799H7.3656L7.4406 5.43549L7.5156 5.69799H7.7562L7.5618 5.86809L7.6356 6.13549L7.4406 5.97099Z" fill="white"/>
<path d="M17.3996 12.334H0.599609V13.3H17.3996V12.334Z" fill="#B22234"/>
</g>
<defs>
<clipPath id="clip0_144_2925">
<rect width="18" height="14" fill="white"/>
</clipPath>
</defs>
</svg>
