<svg width="35" height="36" viewBox="0 0 35 36" fill="none" xmlns="http://www.w3.org/2000/svg">
<g clip-path="url(#clip0_44_1103)">
<path d="M34.9816 18.2177C34.9816 16.7767 34.8625 15.7252 34.6048 14.6348H17.8486V21.1384H27.6841C27.4859 22.7547 26.4151 25.1887 24.0355 26.8243L24.0021 27.042L29.3001 31.0723L29.6672 31.1083C33.0382 28.0511 34.9816 23.553 34.9816 18.2177Z" fill="#4285F4"/>
<path d="M17.8487 35.3532C22.6673 35.3532 26.7125 33.7954 29.6672 31.1083L24.0355 26.8243C22.5285 27.8564 20.5058 28.5768 17.8487 28.5768C13.1292 28.5768 9.12366 25.5198 7.69578 21.2943L7.48649 21.3118L1.97756 25.4983L1.90552 25.695C4.84029 31.4198 10.8686 35.3532 17.8487 35.3532Z" fill="#34A853"/>
<path d="M7.69558 21.2943C7.31883 20.2039 7.10078 19.0354 7.10078 17.8282C7.10078 16.6209 7.31883 15.4526 7.67576 14.3622L7.66578 14.1299L2.08782 9.87613L1.90532 9.96137C0.695759 12.337 0.00170898 15.0048 0.00170898 17.8282C0.00170898 20.6517 0.695759 23.3193 1.90532 25.6949L7.69558 21.2943Z" fill="#FBBC05"/>
<path d="M17.8487 7.07951C21.1999 7.07951 23.4604 8.50098 24.7494 9.68887L29.7862 4.85972C26.6928 2.03626 22.6673 0.303223 17.8487 0.303223C10.8686 0.303223 4.84029 4.23658 1.90552 9.96137L7.67596 14.3622C9.12366 10.1367 13.1292 7.07951 17.8487 7.07951Z" fill="#EB4335"/>
</g>
<defs>
<clipPath id="clip0_44_1103">
<rect width="35" height="35.1708" fill="white" transform="translate(0 0.303223)"/>
</clipPath>
</defs>
</svg>
