<svg width="182" height="113" viewBox="0 0 182 113" fill="none" xmlns="http://www.w3.org/2000/svg">
<path d="M55.5598 31.8562C58.9133 31.8592 62.2286 32.5874 65.2892 33.9929C68.3498 35.3985 71.0873 37.45 73.3229 40.0135L80.3221 33.5421C75.842 28.4324 69.9643 24.8263 63.4558 23.1945C56.9475 21.5626 50.1107 21.9808 43.8374 24.3944C37.5643 26.808 32.1459 31.1049 28.2898 36.7244C24.4335 42.344 22.3185 49.0251 22.2204 55.8962C22.1223 62.7671 24.0459 69.5091 27.74 75.2418C31.4343 80.9748 36.7275 85.4325 42.9293 88.0334C49.1308 90.6341 55.9529 91.2574 62.5051 89.8217C69.0572 88.3859 75.0353 84.9579 79.6593 79.9849L72.8191 73.323C70.0943 76.2455 66.7059 78.4299 62.957 79.6811C59.208 80.9322 55.2149 81.2111 51.3352 80.4927C47.4553 79.7744 43.8097 78.0813 40.7238 75.5647C37.6379 73.048 35.2081 69.7864 33.6517 66.0713C32.0952 62.3561 31.4605 58.3033 31.8043 54.2752C32.1483 50.247 33.46 46.369 35.6222 42.9879C37.7846 39.6067 40.73 36.8277 44.1954 34.8995C47.6607 32.9711 51.5379 31.9536 55.4805 31.9377L55.5598 31.8562Z" fill="#43AA3A"/>
<path d="M23.9257 23.7708L17.0204 17.0898C11.626 22.2428 7.34553 28.3677 4.42455 35.1132C1.50373 41.8586 0 49.0915 0 56.3964C0 63.7012 1.50373 70.9341 4.42455 77.6795C7.34553 84.425 11.626 90.55 17.0204 95.7029L23.9257 89.022C19.4282 84.7558 15.8574 79.6754 13.4203 74.0749C10.9833 68.4746 9.72836 62.4656 9.72836 56.3964C9.72836 50.3271 10.9833 44.3181 13.4203 38.7178C15.8574 33.1173 19.4282 28.0369 23.9257 23.7708Z" fill="#43AA3A"/>
<path d="M88.867 11.0662C79.4517 3.86268 68.0747 -0.0146556 56.3964 4.16289e-05V9.70004C66.0324 9.69081 75.4217 12.8774 83.2063 18.7988L88.867 11.0662Z" fill="#43AA3A"/>
<path d="M56.3964 103.224V112.793C67.3205 112.805 78.011 109.62 87.158 103.628L81.7848 95.7031C74.2261 100.623 65.4064 103.236 56.3964 103.224Z" fill="#43AA3A"/>
<path d="M56.3964 91.4048C48.9961 91.3998 41.776 89.1867 35.7136 85.0648C29.651 80.9429 25.0388 75.1112 22.501 68.3594L13.6719 72.3418C16.9967 80.7267 22.8585 87.9368 30.4852 93.022C38.1118 98.1074 47.1455 100.829 56.3964 100.83V91.4048Z" fill="#EBD8FF"/>
<path d="M21.3913 54.6876C21.9645 45.6975 25.901 37.2644 32.4018 31.0993C38.9026 24.9343 47.4809 21.4989 56.3963 21.4902V11.9631C44.9792 11.9628 33.999 16.3979 25.728 24.3507C17.4571 32.3036 12.5286 43.1652 11.9629 54.6876H21.3913Z" fill="#EBD8FF"/>
<path d="M44.1492 63.351H39.3065V46.302L44.1492 44.4336V63.351Z" fill="#EBD8FF"/>
<path d="M57.8432 56.2407C57.8432 58.5243 57.2064 60.2976 55.933 61.5605C54.7492 62.7541 53.144 63.351 51.1172 63.351C49.1084 63.351 47.5032 62.7541 46.3015 61.5605C45.046 60.2976 44.4182 58.5243 44.4182 56.2407C44.4182 53.9399 45.046 52.1666 46.3015 50.921C47.4852 49.7447 49.0905 49.1565 51.1172 49.1565C53.144 49.1565 54.7492 49.7447 55.933 50.921C57.2064 52.1666 57.8432 53.9399 57.8432 56.2407ZM53.0274 56.2407C53.0274 54.0437 52.3907 52.9451 51.1172 52.9451C49.8438 52.9451 49.2071 54.0437 49.2071 56.2407C49.2071 58.4551 49.8438 59.5623 51.1172 59.5623C52.3907 59.5623 53.0274 58.4551 53.0274 56.2407Z" fill="#EBD8FF"/>
<path d="M69.1069 50.0128L67.9769 54.8654C67.2595 54.1042 66.5062 53.7236 65.717 53.7236C64.4435 53.7236 63.8068 54.4589 63.8068 55.9293V63.351H58.9642V49.7274H63.8068V50.7134C64.7215 49.8657 65.726 49.4419 66.82 49.4419C67.6989 49.4419 68.4612 49.6322 69.1069 50.0128Z" fill="#EBD8FF"/>
<path d="M81.3839 56.6819C81.3839 57.1317 81.3749 57.4344 81.357 57.5901H73.0707C73.2321 59.0433 74.0302 59.7699 75.4651 59.7699C76.6309 59.7699 77.8506 59.4499 79.124 58.8098L80.9804 61.794C79.133 62.832 77.2138 63.351 75.223 63.351C73.1424 63.351 71.5103 62.6936 70.3265 61.3788C69.1965 60.1159 68.6316 58.4119 68.6316 56.2667C68.6316 53.9831 69.2414 52.2099 70.461 50.947C71.6268 49.7533 73.1693 49.1565 75.0884 49.1565C77.0793 49.1565 78.6128 49.7793 79.689 51.0248C80.8189 52.3223 81.3839 54.208 81.3839 56.6819ZM77.1062 54.6838C76.9807 53.9572 76.7744 53.4382 76.4874 53.1268C76.1467 52.7808 75.6355 52.6078 74.9539 52.6078C73.8598 52.6078 73.2321 53.2998 73.0707 54.6838H77.1062Z" fill="#EBD8FF"/>
<path d="M104.396 63.2039H99.526V55.4709C99.526 53.9831 99.0148 53.2392 97.9925 53.2392C96.9522 53.2392 96.432 53.9658 96.432 55.419V63.2039H91.5894V55.4709C91.5894 53.9831 91.0692 53.2392 90.029 53.2392C88.9887 53.2392 88.4685 53.9658 88.4685 55.419V63.2039H83.6259V49.5803H88.4685V50.4885C89.4729 49.6928 90.5939 49.2949 91.8315 49.2949C93.4637 49.2949 94.764 49.8052 95.7325 50.8259C97.0239 49.8052 98.396 49.2949 99.8488 49.2949C102.88 49.2949 104.396 51.1546 104.396 54.8741V63.2039Z" fill="#EBD8FF"/>
<path d="M112.772 46.7172C112.772 47.4265 112.511 47.9887 111.991 48.4039C111.471 48.8191 110.79 49.0267 109.947 49.0267C109.14 49.0267 108.476 48.8191 107.956 48.4039C107.436 47.9887 107.176 47.4265 107.176 46.7172C107.176 46.0598 107.436 45.5235 107.956 45.1083C108.494 44.6758 109.157 44.4595 109.947 44.4595C110.772 44.4595 111.444 44.6758 111.964 45.1083C112.503 45.5235 112.772 46.0598 112.772 46.7172ZM112.368 63.6364H107.525V50.0128H112.368V63.6364Z" fill="#EBD8FF"/>
<path d="M127.922 56.5002C127.922 61.2577 126.289 63.6364 123.025 63.6364C122.021 63.6364 120.971 63.2385 119.877 62.4427V66.4909L115.035 68.3593V49.7274H119.877V50.6875C120.989 49.8571 122.101 49.4419 123.213 49.4419C124.63 49.4419 125.751 49.9868 126.576 51.0767C127.473 52.2877 127.922 54.0956 127.922 56.5002ZM123.133 56.6559C123.133 55.3585 123.007 54.4589 122.756 53.9572C122.523 53.5074 122.137 53.2825 121.599 53.2825C121.025 53.2825 120.451 53.4987 119.877 53.9312V59.1471C120.451 59.5796 121.034 59.7959 121.626 59.7959C122.164 59.7959 122.55 59.5796 122.783 59.1471C123.016 58.6973 123.133 57.8669 123.133 56.6559Z" fill="#EBD8FF"/>
<path d="M141.811 59.0433C141.811 62.1054 139.865 63.6364 135.973 63.6364C134.036 63.6364 132.072 63.2645 130.081 62.5206L131.211 58.9914C133.076 59.7872 134.699 60.1851 136.081 60.1851C136.941 60.1851 137.372 59.9775 137.372 59.5623C137.372 59.1817 136.995 58.8963 136.242 58.706C133.964 58.1178 132.44 57.5296 131.668 56.9414C130.807 56.284 130.377 55.272 130.377 53.9053C130.377 50.9297 132.296 49.4419 136.134 49.4419C137.856 49.4419 139.668 49.7706 141.569 50.428L140.493 54.035C138.681 53.2738 137.184 52.8932 136 52.8932C135.211 52.8932 134.816 53.0922 134.816 53.4901C134.816 53.715 134.897 53.888 135.058 54.0091C135.238 54.1302 135.623 54.2686 136.215 54.4243C138.331 54.9779 139.757 55.5401 140.493 56.111C141.372 56.7684 141.811 57.7458 141.811 59.0433Z" fill="#EBD8FF"/>
<path d="M157.373 63.351H152.504V62.4427C151.445 63.2385 150.271 63.6364 148.979 63.6364C145.93 63.6364 144.406 61.7767 144.406 58.0572V49.7274H149.275V57.4604C149.275 58.9482 149.813 59.6921 150.889 59.6921C151.965 59.6921 152.504 58.9655 152.504 57.5123V49.7274H157.373V63.351Z" fill="#EBD8FF"/>
<path d="M181.152 63.351H176.282V55.618C176.282 54.1302 175.771 53.3863 174.749 53.3863C173.708 53.3863 173.188 54.1129 173.188 55.5661V63.351H168.346V55.618C168.346 54.1302 167.826 53.3863 166.785 53.3863C165.745 53.3863 165.225 54.1129 165.225 55.5661V63.351H160.382V49.7274H165.225V50.6356C166.229 49.8398 167.35 49.4419 168.588 49.4419C170.22 49.4419 171.52 49.9522 172.489 50.9729C173.78 49.9522 175.152 49.4419 176.605 49.4419C179.636 49.4419 181.152 51.3016 181.152 55.0211V63.351Z" fill="#EBD8FF"/>
</svg>
