<svg width="130" height="82" viewBox="0 0 130 82" fill="none" xmlns="http://www.w3.org/2000/svg">
<path d="M39.8713 23.125C42.2779 23.1272 44.657 23.6498 46.8534 24.6584C49.0498 25.6671 51.0143 27.1393 52.6187 28.9789L57.6415 24.3349C54.4264 20.668 50.2084 18.0802 45.5377 16.9092C40.8672 15.7381 35.9609 16.0382 31.459 17.7702C26.9572 19.5023 23.0688 22.5859 20.3015 26.6186C17.5341 30.6514 16.0163 35.4459 15.9459 40.3769C15.8755 45.3077 17.256 50.1459 19.907 54.2599C22.5581 58.374 26.3567 61.573 30.8073 63.4395C35.2577 65.3058 40.1534 65.7531 44.8555 64.7228C49.5574 63.6925 53.8475 61.2324 57.1659 57.6637L52.2571 52.8829C50.3017 54.9802 47.8701 56.5478 45.1797 57.4456C42.4893 58.3435 39.6238 58.5436 36.8396 58.0281C34.0553 57.5126 31.4391 56.2976 29.2246 54.4916C27.01 52.6855 25.2663 50.3449 24.1494 47.6788C23.0324 45.0127 22.5769 42.1043 22.8237 39.2136C23.0705 36.3228 24.0118 33.5399 25.5635 31.1135C27.1153 28.6871 29.229 26.6928 31.7159 25.309C34.2027 23.9251 36.9851 23.1949 39.8144 23.1835L39.8713 23.125Z" fill="#43AA3A"/>
<path d="M17.1698 17.3228L12.2144 12.5284C8.34318 16.2262 5.27138 20.6217 3.17519 25.4625C1.07912 30.3032 0 35.4937 0 40.7359C0 45.9781 1.07912 51.1686 3.17519 56.0093C5.27138 60.8501 8.34318 65.2456 12.2144 68.9434L17.1698 64.149C13.9423 61.0875 11.3798 57.4416 9.63079 53.4225C7.88192 49.4036 6.98137 45.0914 6.98137 40.7359C6.98137 36.3804 7.88192 32.0682 9.63079 28.0492C11.3798 24.0302 13.9423 20.3843 17.1698 17.3228Z" fill="#43AA3A"/>
<path d="M63.7736 8.2056C57.0169 3.03613 48.8524 0.253643 40.4717 0.26419V7.2252C47.3868 7.21858 54.1249 9.50535 59.7113 13.7548L63.7736 8.2056Z" fill="#43AA3A"/>
<path d="M40.4717 74.3404V81.2076C48.3112 81.2164 55.983 78.9307 62.5471 74.6306L58.6912 68.9434C53.2669 72.4743 46.9376 74.3492 40.4717 74.3404Z" fill="#43AA3A"/>
<path d="M40.4717 65.8589C35.161 65.8553 29.9797 64.2671 25.6291 61.3091C21.2784 58.3511 17.9685 54.1661 16.1473 49.3208L9.81128 52.1787C12.1973 58.196 16.4039 63.3701 21.877 67.0194C27.3501 70.6689 33.833 72.6223 40.4717 72.6227V65.8589Z" fill="#414042"/>
<path d="M15.3511 39.5095C15.7624 33.0579 18.5874 27.006 23.2525 22.5818C27.9177 18.1576 34.0738 15.6922 40.4718 15.686V8.84909C32.2784 8.84885 24.3987 12.0316 18.4632 17.7388C12.5278 23.446 8.9909 31.2406 8.58496 39.5095H15.3511Z" fill="#414042"/>
<path d="M31.6828 45.7267H28.2075V33.4918L31.6828 32.151V45.7267Z" fill="#414042"/>
<path d="M41.51 40.6241C41.51 42.2629 41.0531 43.5354 40.1392 44.4417C39.2897 45.2984 38.1377 45.7267 36.6833 45.7267C35.2417 45.7267 34.0897 45.2984 33.2273 44.4417C32.3263 43.5354 31.8758 42.2629 31.8758 40.6241C31.8758 38.973 32.3263 37.7004 33.2273 36.8066C34.0768 35.9623 35.2288 35.5402 36.6833 35.5402C38.1377 35.5402 39.2897 35.9623 40.1392 36.8066C41.0531 37.7004 41.51 38.973 41.51 40.6241ZM38.054 40.6241C38.054 39.0474 37.5971 38.2591 36.6833 38.2591C35.7694 38.2591 35.3125 39.0474 35.3125 40.6241C35.3125 42.2132 35.7694 43.0078 36.6833 43.0078C37.5971 43.0078 38.054 42.2132 38.054 40.6241Z" fill="#414042"/>
<path d="M49.5931 36.1548L48.7822 39.6372C48.2674 39.0909 47.7268 38.8178 47.1605 38.8178C46.2466 38.8178 45.7897 39.3454 45.7897 40.4007V45.7267H42.3144V35.9499H45.7897V36.6576C46.4461 36.0493 47.1669 35.7451 47.9521 35.7451C48.5827 35.7451 49.1298 35.8816 49.5931 36.1548Z" fill="#414042"/>
<path d="M58.4035 40.9407C58.4035 41.2635 58.3971 41.4808 58.3842 41.5925H52.4377C52.5535 42.6354 53.1263 43.1568 54.156 43.1568C54.9926 43.1568 55.8679 42.9271 56.7817 42.4678L58.1139 44.6093C56.7882 45.3542 55.411 45.7267 53.9822 45.7267C52.4892 45.7267 51.3179 45.2549 50.4684 44.3114C49.6575 43.4051 49.2521 42.1822 49.2521 40.6428C49.2521 39.004 49.6897 37.7315 50.5649 36.8252C51.4016 35.9686 52.5085 35.5402 53.8857 35.5402C55.3144 35.5402 56.4149 35.9872 57.1872 36.881C57.9981 37.8122 58.4035 39.1654 58.4035 40.9407ZM55.3337 39.5068C55.2436 38.9854 55.0956 38.6129 54.8897 38.3895C54.6451 38.1412 54.2783 38.017 53.7892 38.017C53.004 38.017 52.5535 38.5136 52.4377 39.5068H55.3337Z" fill="#414042"/>
<path d="M74.9174 45.6211H71.4228V40.0717C71.4228 39.004 71.056 38.4702 70.3223 38.4702C69.5758 38.4702 69.2025 38.9916 69.2025 40.0344V45.6211H65.7273V40.0717C65.7273 39.004 65.354 38.4702 64.6075 38.4702C63.8609 38.4702 63.4877 38.9916 63.4877 40.0344V45.6211H60.0124V35.8444H63.4877V36.4962C64.2085 35.9251 65.0129 35.6396 65.901 35.6396C67.0723 35.6396 68.0055 36.0058 68.7005 36.7383C69.6273 36.0058 70.6119 35.6396 71.6545 35.6396C73.8297 35.6396 74.9174 36.9742 74.9174 39.6434V45.6211Z" fill="#414042"/>
<path d="M80.9282 33.7897C80.9282 34.2988 80.7416 34.7022 80.3683 35.0002C79.9951 35.2982 79.506 35.4471 78.901 35.4471C78.3218 35.4471 77.8456 35.2982 77.4723 35.0002C77.099 34.7022 76.9124 34.2988 76.9124 33.7897C76.9124 33.318 77.099 32.9331 77.4723 32.6352C77.8585 32.3248 78.3347 32.1696 78.901 32.1696C79.4931 32.1696 79.9758 32.3248 80.349 32.6352C80.7352 32.9331 80.9282 33.318 80.9282 33.7897ZM80.6386 45.9315H77.1634V36.1548H80.6386V45.9315Z" fill="#414042"/>
<path d="M91.8004 40.8104C91.8004 44.2245 90.6291 45.9315 88.2865 45.9315C87.5657 45.9315 86.8127 45.646 86.0276 45.0749V47.98L82.5523 49.3208V35.9499H86.0276V36.639C86.8256 36.043 87.6236 35.7451 88.4216 35.7451C89.4385 35.7451 90.2429 36.1362 90.835 36.9183C91.4786 37.7873 91.8004 39.0847 91.8004 40.8104ZM88.3637 40.9221C88.3637 39.991 88.2736 39.3454 88.0934 38.9854C87.9261 38.6626 87.6494 38.5012 87.2632 38.5012C86.8514 38.5012 86.4395 38.6564 86.0276 38.9668V42.7098C86.4395 43.0202 86.8578 43.1754 87.2825 43.1754C87.6687 43.1754 87.9454 43.0202 88.1127 42.7098C88.2801 42.3871 88.3637 41.7911 88.3637 40.9221Z" fill="#414042"/>
<path d="M101.768 42.6354C101.768 44.8328 100.371 45.9315 97.5782 45.9315C96.1882 45.9315 94.7787 45.6646 93.35 45.1308L94.1609 42.5981C95.4995 43.1692 96.6644 43.4547 97.6555 43.4547C98.2733 43.4547 98.5822 43.3058 98.5822 43.0078C98.5822 42.7347 98.3119 42.5298 97.7713 42.3933C96.1367 41.9712 95.0426 41.5491 94.4892 41.1269C93.8713 40.6552 93.5624 39.9289 93.5624 38.9481C93.5624 36.8128 94.9396 35.7451 97.6941 35.7451C98.9297 35.7451 100.23 35.981 101.594 36.4527L100.822 39.0412C99.5218 38.495 98.4471 38.2219 97.5976 38.2219C97.0312 38.2219 96.7481 38.3646 96.7481 38.6502C96.7481 38.8116 96.806 38.9357 96.9218 39.0226C97.0505 39.1095 97.3273 39.2088 97.752 39.3206C99.2708 39.7179 100.294 40.1213 100.822 40.531C101.453 41.0028 101.768 41.7042 101.768 42.6354Z" fill="#414042"/>
<path d="M112.936 45.7267H109.441V45.0749C108.682 45.646 107.839 45.9315 106.912 45.9315C104.724 45.9315 103.63 44.5969 103.63 41.9277V35.9499H107.124V41.4994C107.124 42.5671 107.51 43.1009 108.283 43.1009C109.055 43.1009 109.441 42.5795 109.441 41.5366V35.9499H112.936V45.7267Z" fill="#414042"/>
<path d="M130 45.7267H126.505V40.1772C126.505 39.1095 126.139 38.5757 125.405 38.5757C124.658 38.5757 124.285 39.0971 124.285 40.14V45.7267H120.81V40.1772C120.81 39.1095 120.437 38.5757 119.69 38.5757C118.944 38.5757 118.57 39.0971 118.57 40.14V45.7267H115.095V35.9499H118.57V36.6017C119.291 36.0306 120.096 35.7451 120.984 35.7451C122.155 35.7451 123.088 36.1113 123.783 36.8438C124.71 36.1113 125.695 35.7451 126.737 35.7451C128.912 35.7451 130 37.0797 130 39.7489V45.7267Z" fill="#414042"/>
</svg>
