<svg width="32" height="24" viewBox="0 0 32 24" fill="none" xmlns="http://www.w3.org/2000/svg">
<mask id="mask0_22_455" style="mask-type:luminance" maskUnits="userSpaceOnUse" x="0" y="0" width="33" height="24">
<path d="M0 0H32.0002V24H0V0Z" fill="white"/>
</mask>
<g mask="url(#mask0_22_455)">
<path fill-rule="evenodd" clip-rule="evenodd" d="M-2 0H34V24H-2V0Z" fill="#199D00"/>
<path fill-rule="evenodd" clip-rule="evenodd" d="M7.07223 6.80294C7.03065 7.36361 6.98082 8.35033 7.45721 8.45153C8.03345 8.50694 7.71568 7.47625 7.92427 7.28936C7.9637 7.19702 8.0364 7.19655 8.0424 7.31303V8.18725C8.03715 8.4716 8.22404 8.55531 8.36921 8.61405C8.52034 8.60238 8.62121 8.60744 8.68041 8.75444L8.75129 10.2667C8.75129 10.2667 9.10173 10.367 9.11841 9.41608C9.13515 8.8578 9.00685 8.39046 9.08209 8.2818C9.08471 8.17506 9.22102 8.16869 9.31552 8.22072C9.46618 8.32694 9.53326 8.45814 9.76735 8.40569C10.1235 8.30753 10.3376 8.13428 10.3429 7.86081C10.3221 7.60089 10.2929 7.34097 10.1803 7.08105C10.196 7.03375 10.1116 6.91131 10.1272 6.86402C10.1912 6.96428 10.2886 6.95594 10.3108 6.86402C10.2502 6.66428 10.1561 6.47289 10.0036 6.39002C9.8776 6.27902 9.69315 6.3017 9.6256 6.53327C9.59434 6.80008 9.72179 7.1171 9.91609 7.37552C9.95734 7.47649 10.0153 7.64425 9.98982 7.79533C9.88646 7.85435 9.78305 7.82974 9.69643 7.73828C9.69643 7.73828 9.41293 7.52566 9.41293 7.47841C9.48816 6.99672 9.42962 6.94211 9.38795 6.80842C9.35879 6.62388 9.27123 6.56472 9.2003 6.43867C9.12938 6.36349 9.03343 6.36349 8.98759 6.43867C8.86224 6.65594 8.9207 7.12225 9.01121 7.33117C9.07665 7.52327 9.17659 7.64383 9.12934 7.64383C9.09048 7.75239 9.01009 7.72731 8.95159 7.60202C8.86805 7.34303 8.85132 6.9566 8.85132 6.78264C8.82629 6.56688 8.79873 6.1067 8.65674 5.9898C8.57012 5.87186 8.44173 5.92938 8.39687 6.03705C8.38754 6.25117 8.38655 6.46525 8.4107 6.6626C8.50805 7.00867 8.53866 7.31303 8.58591 7.66745C8.59904 8.1422 8.31141 7.87342 8.32454 7.63806C8.39087 7.33235 8.37366 6.85113 8.3147 6.72916C8.26801 6.60719 8.21284 6.5771 8.09921 6.59716C8.00898 6.59167 7.7768 6.84517 7.7116 7.26569C7.7116 7.26569 7.65601 7.48216 7.63234 7.67435C7.60046 7.89152 7.45749 8.0448 7.35718 7.64378C7.27055 7.35236 7.2173 6.63485 7.07218 6.80289L7.07223 6.80294Z" fill="white"/>
<path fill-rule="evenodd" clip-rule="evenodd" d="M8.63804 9.10359C8.12954 9.35217 7.63778 9.58406 7.13757 9.82429C7.15585 9.48417 7.85096 8.8702 8.32496 8.86157C8.6335 8.8702 8.55596 8.98106 8.63804 9.10359Z" fill="white"/>
<path fill-rule="evenodd" clip-rule="evenodd" d="M8.37582 9.57376C7.58504 11.6122 10.2276 11.8962 10.5229 9.65724C10.5507 9.56537 10.6622 9.47349 10.6817 9.62382C10.6204 11.6511 8.63762 11.7904 8.30068 11.1526C8.2172 11.0023 8.19207 10.6681 8.18373 10.4676C8.13357 10.0694 7.92479 10.2226 7.89137 10.6179C7.8579 10.8379 7.86629 10.8993 7.86629 11.1109C7.97209 12.7121 10.5258 12.0243 10.9407 10.7015C11.1607 9.9691 10.9044 9.42891 11.0242 9.43168C11.2776 9.70458 11.6312 9.46787 11.7092 9.37318C11.7427 9.32583 11.8262 9.29527 11.8847 9.35649C12.0824 9.49862 12.4306 9.43163 12.5029 9.18104C12.5447 8.93598 12.5782 8.68257 12.5865 8.42087C12.4249 8.47102 12.3053 8.50435 12.2941 8.57124L12.2607 8.78841C12.2468 8.85807 12.1074 8.86079 12.102 8.77168C12.0407 8.49319 11.7873 8.45701 11.6341 8.88868C11.531 8.97221 11.3445 8.98894 11.325 8.86365C11.35 8.57401 11.233 8.53501 10.9992 8.67146C10.9239 8.0978 10.8488 7.54927 10.7736 6.97557C10.8711 6.97276 10.9602 7.04513 11.0494 6.93376C10.9518 6.63029 10.7458 6.00924 10.6315 5.96466C10.5759 5.89787 10.5284 5.93963 10.4561 5.95632C10.3336 5.99532 10.2194 6.10116 10.2556 6.30723C10.4004 7.18716 10.4951 7.85832 10.6399 8.7383C10.6622 8.84134 10.5759 8.97769 10.4645 8.96377C10.2751 8.83571 10.2279 8.57677 9.90479 8.58783C9.67084 8.59065 9.40342 8.84405 9.37009 9.08921C9.33109 9.28402 9.31712 9.49562 9.37 9.66559C9.53439 9.86326 9.7321 9.84385 9.90475 9.79927C10.0468 9.74082 10.1637 9.59879 10.2138 9.63216C10.2473 9.67398 10.2221 10.1417 9.54545 10.501C9.13614 10.6847 8.81026 10.7266 8.6349 10.3924C8.52629 10.1835 8.64325 9.38987 8.37582 9.57371V9.57376Z" fill="white"/>
<path fill-rule="evenodd" clip-rule="evenodd" d="M11.7301 7.50139C11.8888 7.44289 12.6408 6.58245 12.6408 6.58245C12.6018 6.54903 12.567 6.52395 12.528 6.49053C12.4861 6.45434 12.4904 6.41815 12.528 6.38192C12.7145 6.27336 12.6547 6.03523 12.5572 5.92667C12.3957 5.8542 12.255 5.87792 12.152 5.9308C12.0211 6.05614 11.9905 6.25658 12.0936 6.38192C12.1939 6.42926 12.2941 6.53094 12.2272 6.58662C11.9196 6.91522 11.0771 7.48194 11.1746 7.50139C11.1954 7.52923 11.7135 7.52783 11.7301 7.50139ZM7.18913 10.5469C6.90713 10.9961 6.88256 11.6673 7.03819 11.8674C7.12088 11.962 7.25672 12.0034 7.35722 11.9738C7.53441 11.8969 7.61194 11.5379 7.56989 11.4066C7.51074 11.3141 7.46419 11.2994 7.40513 11.3781C7.28044 11.6313 7.22869 11.4576 7.21777 11.3161C7.19864 11.0479 7.22391 10.8008 7.25302 10.6051C7.28405 10.4046 7.25255 10.4659 7.18913 10.5469ZM19.2399 9.82733C18.9673 9.2404 18.5898 8.66042 18.4697 8.43762C18.3496 8.21473 17.4429 6.89886 17.3094 6.75087C17.0149 6.40086 17.7878 6.89665 17.2117 6.20169C16.992 6.01325 16.9793 6.00176 16.797 5.84801C16.705 5.78276 16.4805 5.66356 16.4407 5.86114C16.4207 6.03537 16.4315 6.12983 16.4607 6.2749C16.4832 6.37161 16.6241 6.53356 16.6934 6.6274C17.6133 7.86397 18.429 9.11272 19.2156 10.6828C19.3398 10.6237 19.3126 9.92553 19.24 9.82733H19.2399Z" fill="white"/>
<path fill-rule="evenodd" clip-rule="evenodd" d="M18.0433 11.7909C17.9897 11.8511 18.1757 12.1086 18.4174 12.1083C18.8216 12.0614 19.1775 11.8343 19.507 11.2366C19.5951 11.0972 19.75 10.7991 19.7545 10.5679C19.7853 9.21202 19.6866 8.15696 19.4835 7.17694C19.4704 7.0815 19.4784 6.96928 19.4945 6.94069C19.5207 6.90942 19.6095 6.94083 19.6566 6.86363C19.7257 6.79308 19.4731 6.20878 19.3291 5.98374C19.278 5.88324 19.2602 5.81611 19.1756 5.99555C19.0865 6.14133 19.0268 6.39577 19.0338 6.63352C19.2266 7.96866 19.2859 9.1366 19.4118 10.4717C19.4222 10.6008 19.4031 10.7885 19.3173 10.8633C18.9999 11.1948 18.5416 11.6028 18.0433 11.7909ZM23.5038 11.7839C23.2137 11.9516 23.2134 12.1445 23.4479 12.1515C23.8521 12.1045 24.3298 12.071 24.6592 11.5735C24.7473 11.4341 24.8521 11.0572 24.8566 10.826C24.8874 9.47011 24.8389 8.45808 24.6357 7.47816C24.6228 7.38267 24.5805 7.16297 24.5966 7.13433C24.6229 7.06721 24.7546 7.14164 24.8017 7.06439C24.8708 6.99389 24.4606 6.46688 24.3166 6.24183C24.2655 6.14138 24.2477 6.07425 24.1631 6.25364C24.074 6.39947 24.0429 6.66108 24.0785 6.89166C24.2929 8.34141 24.4525 9.43055 24.4854 10.7155C24.4669 10.8375 24.4623 10.9032 24.4051 11.0569C24.2786 11.2191 24.1384 11.4218 24.007 11.5198C23.8756 11.6178 23.5952 11.7113 23.5038 11.784V11.7839Z" fill="white"/>
<path fill-rule="evenodd" clip-rule="evenodd" d="M23.7213 10.484C23.7179 10.145 23.726 9.85222 23.7149 9.59938C23.7037 9.34649 23.6591 9.14056 23.5715 8.96108C23.4887 8.76861 23.5401 8.61397 23.5012 8.40894C23.4624 8.204 23.4719 7.89706 23.4132 7.65388C23.3971 7.55891 23.3478 7.25474 23.363 7.22558C23.387 7.1577 23.4782 7.22769 23.5227 7.14903C23.5894 7.07628 23.2913 6.30491 23.1401 6.08464C23.0857 5.98588 22.9869 6.01972 22.8652 6.18027C22.7522 6.28597 22.7941 6.52695 22.8372 6.75617C23.1273 8.26981 23.3436 9.63983 23.2964 11.0807C23.282 11.2033 23.7243 10.7153 23.7213 10.484ZM21.5781 8.6067C21.3957 8.60338 21.0136 8.25167 20.9021 8.04561C20.8599 7.92744 20.887 7.81213 20.9241 7.74458C20.9916 7.70066 21.0956 7.6513 21.1733 7.69864C21.1733 7.69864 21.2539 7.81133 21.2382 7.82567C21.3379 7.87339 21.3801 7.84592 21.3903 7.80542C21.3971 7.73445 21.3608 7.69217 21.3604 7.61403C21.4026 7.40216 21.6448 7.3692 21.7361 7.50435C21.8028 7.5867 21.8273 7.76178 21.8374 7.87995C21.8363 7.94033 21.7385 7.8695 21.683 7.88403C21.6275 7.89856 21.6141 7.96269 21.6098 8.02067C21.5997 8.17433 21.5815 8.42089 21.5781 8.60666V8.6067ZM18.2111 10.86C18.2614 10.3993 18.1925 9.57885 18.188 9.30702C18.1695 8.66483 18.0646 7.42442 18.0147 7.21719C17.9585 6.82658 18.1753 7.26003 18.1453 7.03297C18.075 6.64292 17.8586 6.3785 17.6043 6.02122C17.5222 5.90497 17.525 5.8813 17.3984 6.04972C17.2583 6.36753 17.3792 6.5862 17.4155 6.83375C17.5989 7.64028 17.7059 8.38236 17.7557 9.11595C17.8055 9.84955 17.8209 10.6428 17.7754 11.4154C17.9128 11.4208 18.1338 11.1931 18.2111 10.86Z" fill="white"/>
<path fill-rule="evenodd" clip-rule="evenodd" d="M24.3424 10.1222C24.0207 9.58242 23.5353 8.99779 23.4055 8.78043C23.2759 8.56303 22.179 7.14778 22.0392 7.00575C21.638 6.5842 22.2233 6.93712 21.9624 6.61153C21.7418 6.36928 21.6774 6.29325 21.4886 6.14756C21.3939 6.08639 21.3365 5.96953 21.3054 6.16865C21.293 6.34359 21.2801 6.546 21.2919 6.69342C21.2912 6.7754 21.3766 6.92939 21.4498 7.02014C22.4227 8.21545 23.4839 9.43593 24.3381 10.9703C24.4597 10.9058 24.4193 10.2172 24.3424 10.1222Z" fill="white"/>
<path fill-rule="evenodd" clip-rule="evenodd" d="M9.74645 9.1261C9.7233 9.1667 9.67173 9.21929 9.68903 9.27371C9.72512 9.32265 9.754 9.33259 9.81419 9.33526C9.8664 9.33526 9.93934 9.34759 9.95505 9.31679C9.98317 9.28585 10.0045 9.22262 9.98111 9.16299C9.92673 9.02705 9.77486 9.07768 9.74645 9.1261Z" fill="#1BA400"/>
<path fill-rule="evenodd" clip-rule="evenodd" d="M20.6017 16.994C21.0319 17.0099 21.3135 17.0137 21.6961 17.0592C21.6961 17.0592 22.0261 17.0266 22.1439 17.0088C22.642 16.9613 22.664 17.7202 22.664 17.7202C22.6586 18.1653 22.4868 18.1886 22.2675 18.2356C22.1422 18.2515 22.0763 18.1605 22.0104 18.0636C21.9278 18.0982 21.8154 18.1032 21.6793 18.0843C21.5 18.0731 21.3207 18.0738 21.1415 18.0626C20.951 18.0458 20.8497 18.0824 20.6592 18.0657C20.62 18.1273 20.569 18.2127 20.4525 18.1852C20.3556 18.1745 20.2408 17.9024 20.2746 17.6955C20.3446 17.5472 20.3253 17.5949 20.318 17.5297C18.559 17.4849 16.7832 17.4065 15.0577 17.429C13.7077 17.4345 12.3744 17.4905 11.0411 17.5466C10.3297 17.5354 9.78634 17.4233 9.41101 16.8743C9.44462 16.8743 11.226 16.9752 11.747 16.9415C12.7105 16.9303 13.59 16.8519 14.5704 16.8239C16.503 16.8575 18.4189 16.8575 20.3514 16.9919C20.1666 16.8655 20.16 16.5667 20.4445 16.4937C20.4687 16.4771 20.4812 16.6422 20.5237 16.6392C20.7514 16.6221 20.6515 16.9304 20.6015 16.994L20.6017 16.994ZM12.8424 6.34123C12.5496 7.17837 13.0103 8.09408 13.3297 8.00492C13.5601 8.10031 13.7068 7.66194 13.8012 7.18166C13.8657 7.04684 13.9145 7.0325 13.9476 7.10178C13.9391 7.74045 13.9935 7.88192 14.1577 8.0758C14.524 8.35841 14.827 8.11189 14.8508 8.08808L15.1359 7.80289C15.1994 7.73609 15.2839 7.7322 15.3736 7.79103C15.4607 7.87025 15.4485 8.00703 15.635 8.10191C15.7921 8.16472 16.1277 8.11644 16.2055 7.98116C16.3101 7.80181 16.3352 7.74022 16.3837 7.6722C16.4584 7.57278 16.5857 7.61698 16.5857 7.64839C16.5738 7.70384 16.4991 7.75934 16.5501 7.85919C16.6389 7.9258 16.6594 7.88295 16.712 7.86814C16.8978 7.77931 17.0373 7.37511 17.0373 7.37511C17.0455 7.22473 16.9613 7.23716 16.9066 7.26814C16.8353 7.31173 16.8307 7.32566 16.7593 7.36925C16.6685 7.38275 16.4922 7.44298 16.4051 7.30808C16.3161 7.14584 16.3149 6.91948 16.2469 6.75589C16.2469 6.74398 16.1289 6.49817 16.2387 6.48242C16.2941 6.49273 16.4124 6.52405 16.4312 6.42444C16.4894 6.32731 16.3067 6.05234 16.1817 5.91345C16.0732 5.7943 15.9228 5.77995 15.7777 5.90159C15.676 5.99511 15.6907 6.09959 15.6707 6.19864C15.6448 6.31236 15.6504 6.45228 15.7658 6.6027C15.8672 6.80272 16.0524 7.06034 15.9916 7.42259C15.9916 7.42259 15.8835 7.59383 15.6951 7.57142C15.6165 7.55431 15.4892 7.52098 15.4212 7.01858C15.3697 6.63833 15.4333 6.10625 15.2719 5.85683C15.2136 5.70622 15.1711 5.56076 15.029 5.81839C14.9908 5.91955 14.827 6.07306 14.9458 6.38881C15.043 6.58897 15.0826 6.91475 15.0385 7.27728C14.9711 7.38026 14.9562 7.41514 14.8679 7.51817C14.7438 7.65153 14.6092 7.6175 14.5061 7.56767C14.4098 7.50275 14.3344 7.46919 14.2904 7.26294C14.2984 6.9342 14.3167 6.39603 14.2566 6.28189C14.168 6.10508 14.0219 6.16901 13.9595 6.22245C13.6596 6.49662 13.5115 6.95923 13.4209 7.32762C13.3378 7.59608 13.2493 7.51916 13.187 7.41083C13.0356 7.26889 13.0253 6.1588 12.8424 6.34133V6.34123Z" fill="white"/>
<path fill-rule="evenodd" clip-rule="evenodd" d="M13.7242 8.16093C13.8572 8.06671 13.795 8.0009 13.9939 8.19974C14.2429 8.62546 14.403 9.17685 14.427 9.66534C14.4165 9.78571 14.5014 9.86188 14.5402 9.83573C14.5632 9.55312 15.2505 9.15937 15.8806 9.10181C15.977 9.08085 15.9301 8.89617 15.9458 8.80199C15.908 8.45217 16.1424 8.13365 16.4709 8.10824C16.918 8.17434 17.0668 8.41303 17.0744 8.77739C17.0261 9.47685 16.2974 9.59545 15.888 9.65123C15.8252 9.67499 15.799 9.70396 15.888 9.73823L17.6034 9.74601L17.6909 9.79654C17.7014 9.83746 17.6659 9.80334 17.5982 9.91485C17.5305 10.0264 17.4306 10.2835 17.4255 10.4552C16.9144 10.6196 16.3858 10.6916 15.8485 10.7565C15.6618 10.8509 15.5693 10.9767 15.6076 11.1183C15.6705 11.2753 16.0839 11.4322 16.0839 11.4396C16.1624 11.4888 16.2553 11.6038 16.0617 11.8392C15.225 11.8024 14.5765 11.4463 14.3521 10.9437C14.2844 10.8913 14.2116 10.9434 14.1649 11.0114C13.8382 11.4325 13.5168 11.8117 12.9598 12.013C12.6277 12.096 12.2877 11.9621 12.1271 11.7446C12.0196 11.6208 12.0237 11.4841 11.9842 11.4545C11.8047 11.5339 10.2599 12.1903 10.4557 11.8845C10.8316 11.4821 11.4826 11.1865 12.0574 10.7894C12.0989 10.6563 12.1743 10.2061 12.4013 10.0595C12.4144 10.0606 12.3654 10.3239 12.3703 10.4349C12.3729 10.526 12.3636 10.5617 12.3835 10.5383C12.4223 10.5135 13.1198 9.96548 13.1737 9.79743C13.2417 9.70106 13.1941 9.45698 13.1941 9.44957C13.0633 9.11245 12.8798 9.08381 12.8118 8.91632C12.7506 8.69381 12.7783 8.43984 12.9054 8.36906C13.0184 8.26654 13.1521 8.2792 13.2755 8.39123C13.4164 8.51742 13.5415 8.76402 13.5777 8.94773C13.5535 9.02038 13.3934 8.89945 13.3378 8.93554C13.4362 9.03735 13.4821 9.15482 13.5176 9.29854C13.6084 9.68334 13.5807 9.83292 13.4893 10.0817C13.1796 10.7328 12.7839 10.9271 12.4376 11.1683C12.4284 11.1716 12.4222 11.3336 12.5524 11.4211C12.5973 11.4683 12.7779 11.4925 12.9903 11.4244C13.4007 11.2006 13.8267 10.7884 14.0382 10.3291C14.0996 9.9817 14.0145 9.61331 13.9241 9.29203C13.7881 8.97806 13.6278 8.52974 13.6278 8.52234C13.6225 8.32654 13.6384 8.25862 13.7243 8.16093H13.7242ZM9.23312 6.35015C9.43055 6.44432 9.80176 6.40424 9.78605 6.08587C9.78605 6.05774 9.77888 5.96249 9.77607 5.93667C9.73576 5.84282 9.62584 5.86603 9.6009 5.96292C9.59307 5.99465 9.61487 6.04635 9.58613 6.06229C9.56963 6.07893 9.50654 6.06913 9.50916 5.9812C9.50916 5.95317 9.48854 5.92307 9.47607 5.90526C9.4636 5.8971 9.45568 5.89485 9.43308 5.89485C9.40552 5.89593 9.40599 5.9031 9.3909 5.92626C9.38448 5.94979 9.37566 5.97281 9.37566 5.99953C9.37219 6.03084 9.36038 6.04199 9.33737 6.04663C9.31163 6.04663 9.31744 6.04945 9.29659 6.03618C9.28421 6.02259 9.26874 6.01743 9.26874 5.99432C9.26874 5.97037 9.2633 5.9316 9.25608 5.91581C9.24516 5.90137 9.22759 5.89471 9.2078 5.8896C9.09999 5.88998 9.09249 6.01298 9.09873 6.05967C9.09062 6.06848 9.08607 6.28912 9.23312 6.35015Z" fill="white"/>
<path fill-rule="evenodd" clip-rule="evenodd" d="M15.0208 8.79984C15.2183 8.89402 15.6882 8.83983 15.5738 8.53556C15.5738 8.50744 15.5666 8.41214 15.5638 8.38636C15.5235 8.29252 15.4136 8.31572 15.3886 8.41261C15.3808 8.44434 15.4026 8.49605 15.3739 8.51198C15.3574 8.52863 15.2943 8.51883 15.2969 8.43089C15.2969 8.40286 15.2763 8.37277 15.2638 8.35495C15.2513 8.3468 15.2434 8.34455 15.2208 8.34455C15.1932 8.34562 15.1937 8.3528 15.1786 8.37595C15.1722 8.39948 15.1634 8.4225 15.1634 8.44922C15.1599 8.48053 15.1481 8.49169 15.1251 8.49633C15.0994 8.49633 15.1052 8.49914 15.0843 8.48587C15.0719 8.47228 15.0565 8.46712 15.0565 8.44402C15.0565 8.42006 15.051 8.3813 15.0438 8.3655C15.0329 8.35106 15.0153 8.34441 14.9955 8.3393C14.8877 8.33967 14.8802 8.46267 14.8864 8.50936C14.8783 8.51817 14.8738 8.73881 15.0208 8.79984ZM18.3958 7.78594C18.5933 7.88011 18.9645 7.84003 18.9488 7.52166C18.9488 7.49353 18.9416 7.39828 18.9388 7.37245C18.8985 7.27861 18.7886 7.30181 18.7636 7.3987C18.7558 7.43044 18.7776 7.48214 18.7489 7.49808C18.7324 7.51472 18.6693 7.50492 18.6719 7.41698C18.6719 7.38895 18.6513 7.35886 18.6388 7.34105C18.6263 7.33289 18.6184 7.33064 18.5958 7.33064C18.5682 7.33172 18.5687 7.33889 18.5536 7.36205C18.5472 7.38558 18.5383 7.40859 18.5383 7.43531C18.5349 7.46662 18.5231 7.47778 18.5001 7.48242C18.4744 7.48242 18.4802 7.48523 18.4593 7.47197C18.4469 7.45837 18.4314 7.45322 18.4314 7.43011C18.4314 7.40616 18.426 7.36739 18.4188 7.35159C18.4079 7.33716 18.3903 7.3305 18.3705 7.32539C18.2627 7.32577 18.2552 7.44877 18.2614 7.49545C18.2533 7.50427 18.2488 7.72491 18.3958 7.78594ZM20.1438 10.3327C19.7997 10.7205 19.9514 11.3618 20.0292 11.5C20.1426 11.727 20.2339 11.8725 20.4547 11.9848C20.6558 12.1327 20.8124 12.0403 20.8988 11.9366C21.1011 11.727 21.1035 11.1916 21.1985 11.0855C21.2651 10.8907 21.4329 10.9239 21.5143 11.0103C21.5932 11.1237 21.6861 11.1968 21.8021 11.2586C21.9908 11.4251 22.2161 11.4555 22.4382 11.3038C22.5899 11.2187 22.6885 11.1087 22.7773 10.8904C22.8761 10.6265 22.821 9.40692 22.8013 8.68411C22.7937 8.62739 22.6052 7.69012 22.6052 7.67967C22.6052 7.66917 22.5802 7.20131 22.5595 7.08984C22.5559 7.04461 22.5446 7.03162 22.592 7.03734C22.6423 7.07967 22.6492 7.08234 22.6806 7.09627C22.7314 7.10555 22.7768 7.01916 22.7462 6.9397L22.2752 6.07097C22.2373 6.03375 22.1885 5.99287 22.1286 6.08147C22.0713 6.13167 22.0103 6.22256 22.0122 6.33942C22.0261 6.5453 22.0624 6.75473 22.0762 6.96066L22.2647 8.01778C22.324 8.77134 22.3389 9.38808 22.3982 10.1416C22.3899 10.4607 22.2907 10.7389 22.1976 10.779C22.1976 10.779 22.0561 10.8611 21.9611 10.7705C21.8921 10.7428 21.6158 10.3099 21.6158 10.3099C21.4745 10.1804 21.3814 10.2174 21.2808 10.3099C21.0036 10.5776 20.8781 11.0784 20.6898 11.4238C20.6412 11.5009 20.5039 11.5669 20.3518 11.4182C19.9654 10.8905 20.1919 10.1396 20.1438 10.3327ZM18.4844 5.93766C18.6613 6.01172 18.7861 6.36998 18.7454 6.54492C18.7102 6.76134 18.6164 6.99506 18.5489 6.96464C18.4756 6.93745 18.5989 6.74948 18.5284 6.55233C18.4893 6.42398 18.2479 6.18947 18.2734 6.12033C18.2235 5.97548 18.376 5.91211 18.4844 5.93766Z" fill="white"/>
<path fill-rule="evenodd" clip-rule="evenodd" d="M20.7133 10.545C20.7505 10.1147 20.6877 9.85235 20.6765 9.59946C20.6654 9.34657 20.3905 7.41701 20.3348 7.22567C20.2675 6.86388 20.602 7.17715 20.5654 6.96673C20.4497 6.70142 20.1618 6.31517 20.0713 6.08473C20.017 5.98601 20.0398 5.89817 19.918 6.05876C19.8051 6.42795 19.7659 6.72973 19.809 6.95899C20.099 8.47259 20.3965 9.73118 20.3493 11.1721C20.4868 11.173 20.6454 10.8573 20.7133 10.545ZM23.7353 6.54748C23.8966 6.62763 23.991 7.07665 23.9732 7.20495C23.9411 7.43927 23.8555 7.69231 23.7941 7.65935C23.7273 7.62992 23.8075 7.31187 23.7754 7.21296C23.7398 7.07403 23.5197 6.82015 23.5429 6.74529C23.4974 6.58849 23.6364 6.51987 23.7353 6.54748ZM11.7508 9.73123C11.905 9.7901 11.9955 10.1201 11.9784 10.2144C11.9477 10.3865 11.8658 10.5724 11.807 10.5483C11.7431 10.5266 11.8199 10.2929 11.7892 10.2202C11.7761 10.044 11.5621 9.95271 11.5665 9.87659C11.5266 9.73662 11.6561 9.71084 11.7508 9.73123Z" fill="white"/>
<path fill-rule="evenodd" clip-rule="evenodd" d="M15.4778 10.2267C15.6769 10.2394 15.7764 10.3956 15.5899 10.4611C15.406 10.5241 15.2292 10.5733 15.2284 10.8391C15.2964 11.2095 15.1351 11.0824 15.0388 11.0321C14.9254 10.9507 14.6072 10.7546 14.5618 10.3313C14.555 10.2303 14.6338 10.1453 14.7606 10.1459C14.9516 10.1978 15.2334 10.2016 15.4778 10.2267H15.4778Z" fill="#1B9D00"/>
<path fill-rule="evenodd" clip-rule="evenodd" d="M7.62813 5.83078C7.85571 5.89941 7.86916 6.23391 7.85238 6.33169C7.82205 6.51019 7.74142 6.70294 7.68353 6.67782C7.62053 6.65541 7.68105 6.41311 7.65081 6.33774C7.61706 6.23189 7.42478 6.03849 7.44658 5.98149C7.40378 5.862 7.53485 5.80969 7.62813 5.83078ZM12.1225 7.40766C11.9479 7.50211 11.8802 7.7836 11.989 7.94757C12.0905 8.09194 12.2508 8.03841 12.2722 8.03841C12.4433 8.05983 12.5448 7.71769 12.5448 7.71769C12.5448 7.71769 12.5502 7.6215 12.347 7.80328C12.2615 7.81932 12.2508 7.78721 12.2295 7.73907C12.2117 7.65 12.2152 7.56094 12.2562 7.47183C12.2865 7.38633 12.2205 7.34888 12.1225 7.40766ZM13.4322 5.70141C13.3445 5.76024 13.1698 5.94118 13.1645 6.14968C13.1592 6.26728 13.1373 6.26691 13.2143 6.34177C13.2699 6.42202 13.326 6.4148 13.4383 6.35597C13.5028 6.30844 13.5246 6.27689 13.5464 6.19721C13.5731 6.06361 13.4051 6.26058 13.3837 6.11189C13.3463 5.9738 13.4542 5.91727 13.5558 5.78368C13.5591 5.69213 13.5572 5.6273 13.4322 5.70141ZM14.4874 5.88891C14.4496 5.97244 14.4042 6.40889 14.4118 6.40889C14.3816 6.53893 14.5479 6.59457 14.6235 6.42741C14.7369 6.12099 14.7369 5.991 14.7444 5.86097C14.7091 5.66297 14.5756 5.66916 14.4874 5.88891ZM21.1399 9.27422C21.1626 9.25153 22.0773 8.60142 22.0773 8.60142C22.1705 8.56866 22.1503 8.93658 22.1075 8.93405C22.1252 9.00708 21.2054 9.63202 21.1398 9.60685C21.0945 9.63961 21.0491 9.35489 21.1398 9.27422H21.1399ZM21.9738 9.2686C22.135 9.34875 22.1993 9.82046 22.1815 9.94875C22.1872 10.1982 22.0261 10.3983 21.9646 10.3654C21.8977 10.3359 21.9704 10.0557 21.9383 9.95677C21.9027 9.81783 21.7658 9.55636 21.7889 9.4815C21.7435 9.32471 21.8749 9.24099 21.9738 9.2686ZM16.533 11.3002C16.5966 11.2072 16.7932 11.0733 16.7976 11.0733C16.8883 11.028 16.9769 11.1089 16.9715 11.1036C16.9866 11.1943 16.9141 11.2787 16.9368 11.3997C16.9566 11.4485 16.9712 11.5026 17.0605 11.482C17.2058 11.3677 17.3403 11.3603 17.4856 11.3531C17.5968 11.3598 17.6013 11.5482 17.5309 11.5496C17.2627 11.6079 17.1425 11.6797 16.951 11.7528C16.8603 11.8057 16.7825 11.7386 16.7825 11.731C16.7825 11.7235 16.7294 11.6796 16.7665 11.5594C16.773 11.463 16.7343 11.4102 16.654 11.4211C16.5935 11.4538 16.5402 11.4755 16.51 11.406C16.4981 11.3546 16.4942 11.3296 16.533 11.3002ZM22.9361 11.5542C22.9753 11.6041 23.0007 11.6503 22.933 11.7322C22.8688 11.791 22.8236 11.8234 22.7595 11.8822C22.7292 11.9338 22.7098 12.0122 22.8025 12.0372C22.9736 12.0853 23.3691 11.8287 23.3691 11.8233C23.4333 11.7752 23.4119 11.6843 23.4065 11.6843C23.3691 11.6416 23.2848 11.667 23.2282 11.6601C23.2012 11.6601 23.1126 11.6467 23.1548 11.5683C23.1899 11.5195 23.2025 11.4897 23.2264 11.4296C23.2531 11.3708 23.2301 11.3316 23.1339 11.2995C23.0359 11.2817 22.9968 11.2906 22.888 11.2995C22.8293 11.312 22.8092 11.3383 22.7985 11.4095C22.8027 11.5176 22.8685 11.5115 22.9361 11.5542Z" fill="white"/>
<path fill-rule="evenodd" clip-rule="evenodd" d="M16.568 8.8942C16.5429 8.93756 16.4581 8.93545 16.3786 8.88951C16.2991 8.84357 16.255 8.77106 16.28 8.72765C16.3051 8.68424 16.3899 8.6864 16.4694 8.73243C16.5489 8.77846 16.5931 8.85084 16.568 8.8942ZM12.3927 6.38198C12.3452 6.3936 12.2831 6.35123 12.254 6.28734C12.2249 6.22345 12.2399 6.16223 12.2874 6.1506C12.3349 6.13898 12.397 6.18131 12.4261 6.2452C12.4552 6.30909 12.4403 6.37035 12.3927 6.38198Z" fill="#259F00"/>
<path fill-rule="evenodd" clip-rule="evenodd" d="M20.6518 17.5767C21.0902 17.5981 21.502 17.5817 21.9403 17.6031C22.0197 17.6706 21.963 17.8363 21.9101 17.8245C21.7676 17.8208 21.6855 17.8173 21.5429 17.8137C21.5381 17.6741 21.1817 17.697 21.192 17.8182C20.9996 17.8413 20.826 17.8115 20.6336 17.8043C20.5767 17.7336 20.584 17.606 20.6519 17.5767H20.6518Z" fill="#209000"/>
</g>
</svg>
